<?xml version="1.0" encoding="UTF-8"?>
<svg id="Layer_1" data-name="Layer 1" xmlns="http://www.w3.org/2000/svg" viewBox="0 0 240.3 660.54">
  <g id="fnrFTH.tif">
    <g>
      <path d="m9.7,453.04c3.14-1.4,6.28-2.6,9.23-4.16,10.17-5.37,17.66-13.34,22.57-23.73,3.37-7.14,5.18-14.65,5.21-22.56.05-10.91.28-21.83,0-32.74-.23-8.99-3-17.29-8.96-24.24-4.68-5.46-10.83-8.28-17.84-9.39-.53-.08-1.06-.17-1.48-.24.71-2.13,1.51-4.18,2.07-6.28.74-2.81.16-5.63-.25-8.43-1.52-10.3,1.07-19.75,6.05-28.65,5.31-9.48,12.78-17.09,21.17-23.88,9.09-7.36,18.85-13.7,28.98-19.5,7.69-4.4,15.47-8.63,23.21-12.94.06-.03.16,0,.52.03-.93,49.14-1.85,98.3-2.78,147.6h11.86c0,.5,0,.86,0,1.22-.09,17.96-.18,35.91-.27,53.87,0,.46,0,.92-.04,1.37-.09.78-.12,1.34,1,1.35,1.13.01,1.14-.52,1.14-1.38.08-17.46.18-34.91.28-52.37,0-1.29,0-2.57,0-3.95h4.64c0,.48,0,.96,0,1.44-.03,17.71-.07,35.41-.1,53.12,0,.62-.02,1.25-.06,1.87-.05.75,0,1.28,1.01,1.27.98-.01,1.23-.32,1.23-1.32,0-18.42.05-36.83.08-55.25,0-.37-.03-.74-.05-1.17h4.6c0,7.75,0,15.49,0,23.23,0,11.04.01,22.08.02,33.12,0,.64-.2,1.4.91,1.35.95-.04,1.22-.39,1.21-1.38-.05-10.5-.03-21-.05-31.5-.02-7.54-.07-15.08-.1-22.62,0-.7,0-1.4,0-2.18h4.42c0,5.08-.02,10.11,0,15.14.05,13.67.12,27.33.19,41,0,.58-.24,1.3.69,1.5,1.07.23,1.44-.08,1.43-1.32-.09-14.83-.19-29.66-.28-44.49-.02-3.91,0-7.82,0-11.87h11.74c-.97-49.32-1.93-98.51-2.9-147.96.81.4,1.4.66,1.96.98,12.25,7.07,24.68,13.86,36.7,21.3,8.6,5.32,16.59,11.6,23.69,18.9,4.9,5.03,9.24,10.51,12.51,16.76,4.75,9.07,6.81,18.65,5.08,28.84-.73,4.31-.27,8.36,1.75,12.23.13.25.22.52.39.91-.82.13-1.55.23-2.28.35-11.4,1.94-18.94,8.59-23.22,19.14-1.92,4.74-2.99,9.72-3.02,14.84-.06,11.29-.35,22.59.07,33.86.86,22.92,15.36,40.76,34.34,47.79.85.31,1.73.54,2.69.83-.48,1.67-.93,3.3-1.41,4.92-1.12,3.78-.86,7.32.95,10.97,4.71,9.51,7.27,19.69,8.88,30.15.95,6.15,1.42,12.33,1.17,18.55-.86,21.41-7.65,40.48-22.35,56.43-6.81,7.38-14.95,12.94-23.7,17.7-9.62,5.23-19.96,8.46-30.57,10.89-10.98,2.52-22.15,3.75-33.39,4.3-.54.03-1.07,0-1.67,0,0-2.01-.06-3.99.01-5.97.31-8.78.48-17.58,1.06-26.35.45-6.8.95-13.66,2.3-20.32,1.07-5.28,3.3-10.36,5.27-15.42,2.15-5.53,4.71-10.92,5.77-16.97h-45.53c.6,2.49.99,5,1.82,7.36,1.74,4.94,3.71,9.79,5.6,14.67,2.51,6.49,4.14,13.18,4.44,20.14.58,13.61,1.07,27.22,1.58,40.83.08,2.14.04,2.13-2.2,1.94-5.31-.46-10.65-.7-15.92-1.41-19.99-2.68-39.16-7.89-56.08-19.4-19.06-12.96-30.59-30.91-34.9-53.53-3.5-18.36-1.64-36.3,4.38-53.87,1.22-3.57,2.63-7.11,4.34-10.46,1.94-3.8,1.33-7.51.41-11.3-.31-1.29-.83-2.52-1.19-3.6Zm147.79-35.27c.66-.55,1.12-1.1,1.71-1.4,3.05-1.53,6.59-.01,7.25,3.31.52,2.64.75,5.36.78,8.05.08,7.58,0,15.16-.02,22.75-.01,5.73.94,11.27,3.3,16.52,3,6.68,7.69,11.41,15.15,12.84,5.63,1.08,10.37-1.2,12.23-6.17.77-2.07,1.04-4.36,1.27-6.58.09-.83-.4-1.89-.95-2.57-.88-1.1-2.2-1.31-3.53-.79-1.27.5-1.98,1.49-2.13,2.84-.17,1.57.2,3.02,1.73,3.67,1.26.53,1.18,1.18.76,2.19-1.49,3.56-4.5,5.13-8.5,4.46-4.77-.8-7.67-3.82-9.42-8.05-2.1-5.07-2.55-10.5-2.81-15.9-.37-7.49-.43-14.99-.82-22.47-.22-4.29-1.01-8.5-3.2-12.33-1.92-3.35-4.7-5.16-8.59-5.28-3.48-.11-6.18,1.27-7.06,4-.49,1.52-.67,3.17-.84,4.77-.12,1.16.51,2.09,1.49,2.7,1.42.89,3.15.53,4.1-.8,1.06-1.49.84-3.71-.49-4.75-.38-.3-.8-.56-1.41-1Zm-74.78.03c-.54.43-1,.78-1.44,1.16-1.09.95-1.37,2.79-.66,4.11.71,1.31,2.18,1.97,3.59,1.61,1.39-.35,2.37-1.61,2.28-3.19-.08-1.32-.27-2.65-.6-3.94-.53-2.08-1.87-3.57-3.92-4.18-3.47-1.04-6.79-.67-9.6,1.8-2.09,1.83-3.26,4.27-4.09,6.89-1.28,4.01-1.51,8.19-1.7,12.33-.31,6.65-.31,13.32-.6,19.98-.2,4.62-.74,9.21-2.45,13.57-1.29,3.29-3.11,6.16-6.38,7.86-4.68,2.44-9.62,1.15-11.7-3.08-.77-1.56-.75-1.62.76-2.52,1.46-.87,2.03-2.63,1.4-4.37-.59-1.65-2.28-2.63-3.96-2.29-1.52.3-2.64,1.77-2.61,3.51.01.74.14,1.49.25,2.23.43,2.97,1.19,5.79,3.47,7.96,3.5,3.33,7.63,3.42,11.9,2.12,7.06-2.14,11.21-7.32,13.85-13.9,1.92-4.79,2.45-9.84,2.51-14.93.09-8.12-.07-16.24.06-24.36.04-2.5.4-5.08,1.14-7.47.89-2.86,5.32-3.8,7.66-1.88.3.25.52.61.82.99Zm54.77,34.09c0-1.8-.02-3.54,0-5.28.02-1.63.04-1.64-1.6-1.64-10.57,0-21.14,0-31.71,0-.4,0-.81.04-1.29.07v6.85h34.59Zm-28.6,3.54c-.03.66-.08,1.19-.08,1.72-.09,11.45-.15,22.9-.28,34.36-.09,7.91-.25,15.82-.42,23.73-.02.94.3,1.23,1.2,1.27,1.06.06,1.02-.54.98-1.27-.03-.54,0-1.08,0-1.62.12-8.78.26-17.57.35-26.35.03-3.37-.1-6.75-.07-10.12.06-6.7.18-13.41.27-20.11,0-.48,0-.97,0-1.51-.71-.03-1.27-.06-1.95-.09Zm13.9.14c0,.54,0,1.11,0,1.68.04,13.7.1,27.4.13,41.1.01,5.66,0,11.32-.05,16.99,0,.86.24,1.15,1.12,1.18,1.21.05,1.1-.67,1.09-1.44-.09-19.36-.18-38.72-.27-58.09,0-1.65-.04-1.67-2.02-1.41Zm9.41,30.53c-.13,0-.26,0-.4,0,0-2.08.02-4.16,0-6.25-.08-7.79-.18-15.57-.25-23.36,0-.73-.13-1.19-1.01-1.18-.96,0-1.02.55-1.01,1.3.07,6.58.13,13.16.18,19.74.1,13.03.21,26.07.27,39.1,0,1.02.53,1.02,1.26,1.04.77.03.98-.27.98-1.04-.03-9.78-.02-19.57-.02-29.35Zm-16.33-30.49c0,.5,0,1.03,0,1.57-.03,8.37-.04,16.75-.09,25.12-.05,11.04-.12,22.08-.2,33.11,0,.84.33,1.07,1.11,1.09.95.02,1.16-.39,1.16-1.29.02-19.37.07-38.75.11-58.12,0-1.8-.07-1.85-2.09-1.49Z"/>
      <path d="m109.72,81.02h20.93c2.35,99.3,4.7,198.55,7.05,297.86-2.22,0-4.17-.01-6.12,0-.7,0-.8-.37-.8-.96-.04-11.08-.07-22.16-.15-33.24-.06-8.33-.22-16.66-.3-24.99-.21-23.41-.41-46.83-.6-70.24-.24-29.16-.45-58.32-.7-87.48-.13-14.54-.35-29.08-.5-43.62-.11-11.16-.15-22.32-.23-33.49,0-.24-.04-.48-.07-.8-.32-.04-.6-.09-.87-.09-.29,0-.58.03-1.09.06,0,.49,0,.96,0,1.44.24,29,.5,57.99.73,86.99.44,53.33.86,106.66,1.31,159.99.12,14.87.28,29.75.43,44.62.02,1.87.01,1.86-1.8,1.8-.75-.02-1.49,0-2.4,0,0-.4,0-.85,0-1.29.02-22.75.1-45.5.05-68.25-.08-34.16-.25-68.33-.37-102.49-.14-40.17-.25-80.33-.37-120.5,0-.21,0-.42,0-.62q.04-1.88-2.03-1.64c.26,98.24.52,196.49.78,294.77-1.3,0-2.33-.06-3.36.02-.79.06-1.02-.24-1.01-.99.03-2.42.02-4.83.02-7.25.09-24,.22-48,.27-71.99.05-21.79-.04-43.58.03-65.37.13-40.67.33-81.33.49-122,.03-8.33.02-16.67.03-25,0-.7,0-1.4,0-2.2h-1.98c-.02.28-.06.52-.06.76-.12,40.42-.23,80.83-.35,121.25-.14,46.54-.28,93.08-.42,139.62-.03,10.67-.07,21.33-.07,32,0,.94-.29,1.28-1.22,1.22-1.03-.06-2.07-.01-3.18-.01,0-1.2,0-2.23,0-3.26.2-23.66.41-47.33.6-70.99.07-9.29.06-18.58.16-27.87.16-15.37.39-30.74.55-46.12.19-17.79.36-35.58.52-53.37.23-25.16.43-50.33.65-75.49.05-5.62.1-11.25.16-16.87.02-1.7-1.18-.67-1.94-.99-.05.66-.12,1.19-.13,1.72-.2,23-.38,46-.61,68.99-.39,40.37-.82,80.74-1.2,121.11-.31,32.71-.56,65.41-.85,98.12-.01,1.37-.05,2.75-.17,4.12-.03.32-.43.87-.67.88-2.07.07-4.14.04-6.3.04,2.38-99.31,4.76-198.53,7.15-297.91Z"/>
      <path d="m138.51,525.02c-.82,2.39-1.48,4.62-2.34,6.76-1.48,3.7-3.07,7.37-4.65,11.03-2.71,6.3-4.07,12.92-4.47,19.73-.58,9.72-1.04,19.45-1.51,29.18-.23,4.7-.35,9.41-.5,14.11-.02.7-.22,1.09-1,1.09-3.16-.02-6.33,0-9.72,0,0-.55.01-1.07,0-1.58-.34-11.16-.61-22.32-1.06-33.47-.27-6.61-.51-13.24-1.99-19.73-1.42-6.24-4.03-12.05-6.41-17.94-1.09-2.69-1.86-5.51-2.76-8.27-.09-.26-.06-.56-.09-.91h36.51Z"/>
      <path d="m109.82,73.98c.8-16.93,1.59-33.76,2.38-50.7.76,0,1.33,0,1.9,0,4.54,0,9.08.02,13.62-.01,1,0,1.37.3,1.4,1.34.37,12.66.77,25.31,1.17,37.97.11,3.54.24,7.07.38,10.61.03.68-.13,1-.88.99-6.46-.03-12.91-.04-19.37-.06-.16,0-.32-.07-.61-.13Zm12.25-41.47c-.06.19-.12.31-.12.42,0,12.15.03,24.3.03,36.45,0,.78.31.99,1.04,1,1.1.02,1.01-.68,1.01-1.41,0-11.61.01-23.22.02-34.82,0-1.85-.04-1.89-1.98-1.63Zm-4.7,22.45s-.07,0-.11,0c0,4.7,0,9.4,0,14.11,0,1.04.74,1.65,1.54,1.14.36-.23.5-1.05.5-1.6.07-9.15.1-18.31.17-27.46,0-.9-.19-1.43-1.21-1.45-1.11-.01-.88.79-.89,1.4-.02,4.62,0,9.24,0,13.86Zm11.09,7.59s-.09,0-.14,0c0-2.17-.02-4.33.01-6.5.01-.83-.33-1.08-1.11-1.1-.75-.02-1.07.23-1.06.98.07,4.37.12,8.75.19,13.12.01.69.07,1.37,1.05,1.34,1.02-.03,1.07-.72,1.06-1.47,0-2.12,0-4.25,0-6.37Zm-13.81.96c-.72.05-1.73-.76-1.89.36-.26,1.83-.2,3.72-.15,5.58,0,.31.66.78,1.06.84.28.04.92-.48.94-.77.08-1.98.04-3.96.04-6.01Z"/>
      <path d="m109.26,16.34c.1-1.74.18-3.39.3-5.04.25-3.28.55-6.55.77-9.83.07-1.05.36-1.48,1.56-1.47,5.57.06,11.15,0,16.73-.01,1.83,0,1.83,0,1.91,1.88.2,4.49.4,8.98.62,13.46.03.65.07,1.13-.84,1.13-6.78-.02-13.56-.01-20.35-.01-.16,0-.32-.05-.7-.11Z"/>
      <path d="m141.91,32.71c.2-1.49.28-2.91.58-4.28.65-3.01,2.16-4.3,5.22-4.32,3.13-.02,6,.89,8.37,3.01,3.4,3.04,3.29,7.9-.25,10.77-2.52,2.04-5.45,2.98-8.7,2.79-2.38-.14-4.05-1.5-4.59-3.86-.32-1.37-.43-2.78-.63-4.12Z"/>
      <path d="m97.99,63.83c-.11.9-.18,2.15-.44,3.37-.65,3.01-2.76,4.59-5.86,4.47-2.42-.09-4.67-.82-6.69-2.14-4.31-2.81-4.71-7.97-.95-11.46,2.29-2.13,5.06-3.01,8.1-3.02,3.35-.02,5.18,1.82,5.6,5.45.12.99.15,1.99.24,3.34Z"/>
      <path d="m98.62,40.74c-.18,1.19-.33,2.68-.64,4.14-.45,2.11-1.85,3.36-3.96,3.6-4.45.5-8.11-1.09-10.83-4.61-1.75-2.26-1.5-5.85.56-8.1,2.71-2.96,6.24-4.09,10.16-3.71,2.47.24,3.84,1.86,4.3,4.65.2,1.23.26,2.48.41,4.04Z"/>
      <path d="m142.53,55.43c.26-1.62.41-3.2.78-4.72.47-1.91,1.77-3.12,3.74-3.36,3.88-.47,7.4.48,10.13,3.36,3.04,3.2,2.42,7.9-1.29,10.66-2.5,1.86-5.34,2.65-8.45,2.36-2.07-.19-3.55-1.28-4.08-3.3-.43-1.63-.57-3.34-.84-5Z"/>
      <path d="m121.44,613.95c0,5.06,0,9.93,0,14.79,0,5.66-.03,11.32,0,16.98,0,.97-.3,1.29-1.29,1.28-.97-.01-1.29-.3-1.28-1.29.03-10.24.02-20.48-.01-30.71,0-.86.28-1.12,1.07-1.05.45.04.91,0,1.51,0Z"/>
      <path d="m120.21,660.53c-1,0-2-.02-2.99,0-.65.02-.88-.26-.87-.89.02-1.62.02-3.24,0-4.87-.01-.7.32-.98.98-.98,1.95,0,3.91-.03,5.86.05.28.01.75.52.77.82.07,1.66.02,3.33.03,4.99,0,.63-.24.9-.9.87-.95-.04-1.91-.01-2.87-.01,0,0,0,0,0,0Z"/>
      <path d="m137.51,3.47c1.63,0,3.07-.05,4.51.04.27.02.69.56.72.89.21,2.23.31,4.47.49,6.71.06.73-.13,1.11-.93,1.08-1.12-.04-2.24,0-3.36-.08-.31-.02-.84-.37-.86-.61-.23-2.6-.38-5.21-.56-8.03Z"/>
      <path d="m102.49,12.14c-1.55,0-3.03.03-4.51-.04-.18,0-.49-.52-.48-.79.08-2.32.23-4.64.35-6.96.03-.66.34-.97,1.03-.92.74.05,1.49.04,2.24.04,1.99.01,2,.01,1.86,2.05-.14,2.15-.32,4.29-.49,6.62Z"/>
      <path d="m136.51,29.58c.91,0,1.83.02,2.74,0,.73-.02,1.06.27,1.04,1.03-.03,1.24-.03,2.49,0,3.74.02.71-.27.95-.96.95-1.79-.02-3.57-.02-5.36.02-.73.01-1.03-.24-1.02-1.01,0-1.2-.08-2.41-.19-3.61-.09-.89.27-1.2,1.13-1.15.87.05,1.74,0,2.62,0,0,.01,0,.03,0,.04Z"/>
      <path d="m99.54,60.49c2.35,0,4.55-.02,6.74.04.23,0,.63.51.63.79,0,1.33-.05,2.67-.22,3.99-.04.33-.59.82-.93.84-1.79.1-3.58.11-5.37.06-.29,0-.81-.46-.82-.73-.08-1.58-.04-3.16-.04-4.97Z"/>
      <path d="m133.81,52.85c.36-.03.88-.1,1.4-.1,1.58-.02,3.17.02,4.75-.02.68-.02,1.02.19,1.01.9-.02,1.25,0,2.5,0,3.75,0,.69-.24,1.07-1.03,1.04-1.66-.05-3.33-.03-5-.01-.74,0-1.17-.19-1.14-1.06.05-1.44.01-2.89.01-4.49Z"/>
      <path d="m107.85,37.49c-.11,1.9-.21,3.62-.32,5.53-2.24,0-4.46.01-6.68-.03-.17,0-.47-.38-.47-.59-.04-1.41-.06-2.82,0-4.23.01-.24.43-.65.66-.66,2.19-.05,4.38-.03,6.8-.03Z"/>
    </g>
  </g>
</svg>