<?xml version="1.0" encoding="UTF-8"?>
<svg id="Layer_1" data-name="Layer 1" xmlns="http://www.w3.org/2000/svg" viewBox="0 0 275.07 714.95">
  <defs>
    <style>
      .cls-1, .cls-2, .cls-3 {
        fill: none;
      }

      .cls-4 {
        stroke-width: 3px;
      }

      .cls-4, .cls-2, .cls-5, .cls-3, .cls-6 {
        stroke: #000;
      }

      .cls-4, .cls-5, .cls-6 {
        fill: #fff;
      }

      .cls-2 {
        stroke-width: .4px;
      }

      .cls-2, .cls-3 {
        stroke-linecap: round;
        stroke-linejoin: round;
      }

      .cls-3 {
        stroke-width: 4.24px;
      }

      .cls-7 {
        fill-rule: evenodd;
      }

      .cls-6 {
        stroke-width: 2px;
      }
    </style>
  </defs>
  <path class="cls-7" d="m130.05,114.2l-11.31-16.86-.91-10.77-5.23,1.71-.8,2.93-1.23,1.23-1.71-.16-1.55-1.71-1.07-2.61-.32-3.09.32-2.93,1.17-2.14,1.6-.48,1.71.91,1.07,2.29,5.54-1.87-1.55-18.78-5.23,1.71-.8,2.93-1.23,1.18-1.71-.11-1.55-1.71-1.07-2.67-.32-3.04.32-2.94,1.23-2.13,1.54-.48,1.71.91,1.07,2.3,5.55-1.81-1.17-16.7-5.28,1.71-.75,2.94-1.28,1.23-1.65-.16-1.55-1.71-1.12-2.61-.27-3.04.27-2.93,1.23-2.24,1.54-.43,1.71.91,1.12,2.35,5.55-1.87-2.19-25.6,4.16-4.21L167.49.2l.7,30.03h4.75v10.29h-4.16l.59,12.06h5.44v10.35h-4.8l.64,12.38h4.48v10.94h-2.77v11.47l-3.41,16.48h-38.89Z"/>
  <path class="cls-2" d="m130.05,114.2l-11.31-16.86-.91-10.77-5.23,1.71-.8,2.93-1.23,1.23-1.71-.16-1.55-1.71-1.07-2.61-.32-3.09.32-2.93,1.17-2.14,1.6-.48,1.71.91,1.07,2.29,5.54-1.87-1.55-18.78-5.23,1.71-.8,2.93-1.23,1.18-1.71-.11-1.55-1.71-1.07-2.67-.32-3.04.32-2.94,1.23-2.13,1.54-.48,1.71.91,1.07,2.3,5.55-1.81-1.17-16.7-5.28,1.71-.75,2.94-1.28,1.23-1.65-.16-1.55-1.71-1.12-2.61-.27-3.04.27-2.93,1.23-2.24,1.54-.43,1.71.91,1.12,2.35,5.55-1.87-2.19-25.6,4.16-4.21L167.49.2l.7,30.03h4.75v10.29h-4.16l.59,12.06h5.44v10.35h-4.8l.64,12.38h4.48v10.94h-2.77v11.47l-3.41,16.48h-38.89Z"/>
  <path class="cls-7" d="m132.66,143.37l.11-24.7h35.53l.32,24.7h-35.95Z"/>
  <path class="cls-2" d="m132.66,143.37l.11-24.7h35.53l.32,24.7h-35.95Z"/>
  <path class="cls-7" d="m169.26,167.59l-.48-20.06h-36.12l-.64,20.06h37.23Z"/>
  <path class="cls-2" d="m169.26,167.59l-.48-20.06h-36.12l-.64,20.06h37.23Z"/>
  <path class="cls-7" d="m131.86,191.12l.16-19.21,37.23-.11.11,19.42-37.5-.11Z"/>
  <path class="cls-2" d="m131.86,191.12l.16-19.21,37.23-.11.11,19.42-37.5-.11Z"/>
  <path class="cls-7" d="m169.53,214.86l-.16-19.63h-37.5l-.16,19.63h37.82Z"/>
  <path class="cls-2" d="m169.53,214.86l-.16-19.63h-37.5l-.16,19.63h37.82Z"/>
  <path class="cls-7" d="m131.44,236.3l.27-17.29h38.03l.27,17.29h-38.57Z"/>
  <path class="cls-2" d="m131.44,236.3l.27-17.29h38.03l.27,17.29h-38.57Z"/>
  <path class="cls-7" d="m131.12,295.62h39.69l.11,12.96h-39.95l.16-12.96Z"/>
  <path class="cls-2" d="m131.12,295.62h39.69l.11,12.96h-39.95l.16-12.96Z"/>
  <path class="cls-7" d="m170.64,277.86l.16,13.6h-39.69v-13.6h39.53Z"/>
  <path class="cls-2" d="m170.64,277.86l.16,13.6h-39.69v-13.6h39.53Z"/>
  <path class="cls-7" d="m170.16,260.25h-38.94v13.29h39.1l-.16-13.29Z"/>
  <path class="cls-2" d="m170.16,260.25h-38.94v13.29h39.1l-.16-13.29Z"/>
  <path class="cls-7" d="m170.16,256.09l-.16-15.74h-38.57v15.74h38.73Z"/>
  <path class="cls-2" d="m170.16,256.09l-.16-15.74h-38.57v15.74h38.73Z"/>
  <path class="cls-7" d="m171.55,383.42h-41.4v8.38h41.56l-.16-8.38Z"/>
  <path class="cls-2" d="m171.55,383.42h-41.4v8.38h41.56l-.16-8.38Z"/>
  <path class="cls-7" d="m130.32,371.42l-.16,8.64h41.4l-.16-8.64h-41.07Z"/>
  <path class="cls-2" d="m130.32,371.42l-.16,8.64h41.4l-.16-8.64h-41.07Z"/>
  <path class="cls-7" d="m171.55,357.5v9.92h-41.24l.16-9.92h41.07Z"/>
  <path class="cls-2" d="m171.55,357.5v9.92h-41.24l.16-9.92h41.07Z"/>
  <path class="cls-7" d="m130.64,343.31l-.16,9.76h41.07l-.16-9.76h-40.75Z"/>
  <path class="cls-2" d="m130.64,343.31l-.16,9.76h41.07l-.16-9.76h-40.75Z"/>
  <path class="cls-7" d="m171.23,330.19l.16,8.48h-40.75v-8.48h40.6Z"/>
  <path class="cls-2" d="m171.23,330.19l.16,8.48h-40.75v-8.48h40.6Z"/>
  <path class="cls-7" d="m130.96,312.58l-.32,13.12h40.6l-.32-13.12h-39.95Z"/>
  <path class="cls-2" d="m130.96,312.58l-.32,13.12h40.6l-.32-13.12h-39.95Z"/>
  <path class="cls-7" d="m172.19,425.78h-35.35c-2.81,0-7.17-1.51-7.17,1.78,0,4.28,1.93,13.49-1.28,16.57-13.85,13.28-14.85,39.52,3.32,50.09,18.75,10.91,40.65,3.98,48.42-16.64,3.17-8.41,1.38-18.3-3.03-25.88-1.48-2.54-4.91-5.31-4.91-8.05,0-5.96,0-11.91,0-17.87h0Z"/>
  <path class="cls-1" d="m129.67,442.9l-2.56,2.46-4.37,5.44-3.04,6.03-1.71,6.61-.16,6.93,1.23,6.67,2.62,6.35,4,5.71,5.12,4.59,5.87,3.41,6.45,2.19,6.83.59,6.83-.8,6.45-2.14,5.87-3.52,5.12-4.8,3.84-5.55,2.45-6.51,1.23-6.61v-2.03l-.8-6.77-2.13-6.51-3.41-5.87-2.45-2.93-.75-.48v-19.58"/>
  <path class="cls-7" d="m171.98,415.27l.21,7.58h-42.52l.21-7.58h42.09Z"/>
  <path class="cls-2" d="m171.98,415.27l.21,7.58h-42.52l.21-7.58h42.09Z"/>
  <path class="cls-7" d="m130.15,394.73l-.11,7.58h41.67v-7.58h-41.56Z"/>
  <path class="cls-2" d="m130.15,394.73l-.11,7.58h41.67v-7.58h-41.56Z"/>
  <path class="cls-7" d="m171.98,411.91h-42.09v-5.44h41.98l.11,5.44Z"/>
  <path class="cls-2" d="m171.98,411.91h-42.09v-5.44h41.98l.11,5.44Z"/>
  <path class="cls-7" d="m72.7,701.89c-33.8-13.86-52.77-46.33-54.1-82.06-1.63-43.99,27.78-71.01,43.25-108.68,5.77-14.06-.63-29.22-5.25-42.61-6.43-18.59-9.37-36.4-5.29-56.08,8.34-40.19,41.32-55.63,79.17-55.08v-2.46c-39.11-.21-83.88,3.34-99.01,46.24-6.98,19.8-5.99,39.29.69,59.01,8.32,24.57,11.04,36.36-3.15,59.64-39.81,65.32-51.91,175.07,51.43,184.94l-7.74-2.88Z"/>
  <path class="cls-7" d="m178.33,592.06l-52.33.8v5.07l52.33-.75v-5.12l36.17-6.94-.8,23.15-126.43,3.41v-23.21l127.23-3.36-36.17,6.94Z"/>
  <path class="cls-2" d="m178.33,592.06l-52.33.8v5.07l52.33-.75v-5.12l36.17-6.94-.8,23.15-126.43,3.41v-23.21l127.23-3.36-36.17,6.94Z"/>
  <path class="cls-3" d="m130.17,427.78c-37.9,23.29-24.84,82.85,21.64,82.5,47.38-.35,57.14-59.47,19.88-82.5"/>
  <path class="cls-2" d="m132.77,118.68l-2.72-4.48"/>
  <path class="cls-2" d="m168.94,114.2l-.64,4.48"/>
  <path class="cls-3" d="m60.37,698.96c41.55,18.17,109.08,18.91,152.76-.24,48.3-21.17,70.67-67.79,54.74-119.52-7.22-23.46-22.36-43.8-32.23-66.12-10.01-22.63,3.37-43.12,9.5-64.79,13.57-47.97-28.36-92.18-73.9-92.79"/>
  <path class="cls-1" d="m130.32,92.8l-7.26-75,35.74-3"/>
  <path class="cls-5" d="m172.19,445.36l.06,161.44"/>
  <path class="cls-5" d="m164.19,445.36l.06,161.44"/>
  <path class="cls-6" d="m156.19,445.36l.06,161.44"/>
  <path class="cls-6" d="m148.19,445.36l.06,161.44"/>
  <path class="cls-4" d="m140.19,445.36l.06,161.44"/>
  <path class="cls-4" d="m132.19,445.36l.06,161.44"/>
</svg>