<?xml version="1.0" encoding="UTF-8"?>
<svg id="Layer_1" data-name="Layer 1" xmlns="http://www.w3.org/2000/svg" viewBox="0 0 203.55 697.28">
  <defs>
    <style>
      .cls-1, .cls-2, .cls-3 {
        fill: none;
      }

      .cls-4, .cls-2, .cls-3, .cls-5 {
        stroke: #000;
      }

      .cls-4, .cls-6 {
        fill-rule: evenodd;
      }

      .cls-4, .cls-5 {
        stroke-width: 2px;
      }

      .cls-2 {
        stroke-width: 1.59px;
      }

      .cls-2, .cls-3 {
        stroke-linecap: round;
        stroke-linejoin: round;
      }

      .cls-3 {
        stroke-width: .4px;
      }

      .cls-5 {
        fill: #fff;
      }
    </style>
  </defs>
  <path class="cls-6" d="m149.92,482.75l-20.66,24.81c5.11-18.02,10.76-83.88,36.62-77.58,10.7,2.61,17.41,15.27,17.93,25.82.53,10.69,15.45,15.74,17.9,29.34,10.42,57.64-25.55,120.13-54.18,167.78-3.57,5.95-1.79,9.97-6.9,15.85-4.91,5.66-7.87,5.15-12.83,9.09-12.42,9.87-23.95,20.07-41.18,18.63-3.64-.3-17.82-6.7-18.95-5.52-3.85,4.04-9.53,6.2-15.02,6.31-12.32.24-17.76-8.67-21.02-19.2-16.89-54.47,17.28-120.41,42.81-166.73,8.3-15.05,18.99-28.94,29.02-42.85-25.44-3.24-60.51,88.09-67.72,108.82-11,31.59-27.15,85.71-2.84,115.07-13.96-6.9-23.74-9.45-29.13-24.69-4.49-12.69-4.11-26.26-3.19-39.43,1.95-27.68,8.99-54.97,20-80.42,22.55-52.14,51.22-99.42,99.92-131.15,1.31,27.23,2.62,54.46,3.93,81.69.43,9,4.65,14.74-.7,22.68-7.06,10.48-13.85,21.11-19.76,32.29-19.11,36.19-35.8,75.67-31.07,117.33-26.65-13.2-1.86-70.5,5.81-91.23,5.15-13.92,12.24-27.42,19.71-40.22,4.11-7.03,26.92-37.58,8.27-23.29-21.62,16.55-37.84,64.77-44.33,90.17-4.14,16.2-5.67,31.56-5.22,48.24.35,12.89,15.22,23.7,25.69,10.1.92,20.86,21.64,17.9,33.8,8.94,8.17-6.02,14.47-35.26,14.47-35.26,0,0,9.95-9.75,16.22-16.76l-.34,16.03c21.52-23.59,37.05-63,44.59-93.77,4.05-16.53,9.8-35.06,4.91-52.02-2.85-9.87-5.27-14.43-14.13-19.68-4.36-2.59-20.47-2.34-7.87-11.7-5.21-3.09-10.74-.93-15.81,2.93,26.88-4.11,1.55,15.64-4.3,21.61-2.2-10.65-2.42-15.17,6.89-17.91-13.44-6.84-8.84,10.3-6.89,17.91-1.49-.68-2.97-1.36-4.46-2.04h0Z"/>
  <path class="cls-6" d="m129.25,507.56l.7-201.14,3.46-19,3.91-114.45,15.18-13.59-1.89,272.79-21.37,75.4Z"/>
  <path class="cls-1" d="m129.25,507.56l.7-201.14,3.46-19,3.91-114.45,15.18-13.59-1.89,272.79-21.37,75.4Z"/>
  <path class="cls-6" d="m125.1,301.5l4.22-21.18,2.66-109.81,7.91-9.99-1.32-.43-1.15-.7-.24-.64-.09-.57.34-1.14.68-1.1,18.91-16.11.97.44.62.81-.05,1.27-.38,1.23-18.29,16.93-7.91,9.99,28.07-23.19,3.17-11.81-15.24-1.16.99-29.63,4.73-1.36-.11-4.63-4.14.45.43-19.16-10.09-4.61-3.51-34.68,9.32,3.09,1.32-5.2-3.54-.73,1.31-2.86-8.51-17.44-14.8-10.34L98.09.2l-12.7,45.63-2.04,2.29-.85.32-.72-.21-.47-.51-.05-.55-1.4-3.34-2.48-2.01-3.14-.56-3.25,1.21-3.12,2.33-2.17,3.59-1.29,3.98.24,3.98,1.26,3.16,2.48,2.01,3.15.56,3.4-1.03,2.97-2.51h1.17s1.02.47,1.02.47l.57,1.32,8.57,14.24,4.18.21,5.46,10-3.08,1.47,5.63,18.23-.11,2.41-1.12.9-1.2.45-.28.23-.67.04-.58-.27-.45-.56.03-.69-1.41-3.34-2.5-1.96-3.08-.59-3.4,1.15-3.02,2.37-2.26,3.54-1.22,4.08.14,3.93,1.42,3.17,2.43,1.99,3.15.56,3.45-1.12.75-1.01,1.16-.35,1.42.36,24.02,19.95-5.41,3.63-3.57-2.33-1.41-.12-1.32.57-.76.89-2.81,6.16,1.79,3.52,3.39,2.6,1.35,7.07,17.11.54-3.14,115.34-6.3,5.57,6.21,2.84.55,8.81-3.99,2.69.72,119.21,4.14,86.05.46-201.25Z"/>
  <path class="cls-3" d="m125.1,301.5l4.22-21.18,2.66-109.81,7.91-9.99-1.32-.43-1.15-.7-.24-.64-.09-.57.34-1.14.68-1.1,18.91-16.11.97.44.62.81-.05,1.27-.38,1.23-18.29,16.93-7.91,9.99,28.07-23.19,3.17-11.81-15.24-1.16.99-29.63,4.73-1.36-.11-4.63-4.14.45.43-19.16-10.09-4.61-3.51-34.68,9.32,3.09,1.32-5.2-3.54-.73,1.31-2.86-8.51-17.44-14.8-10.34L98.09.2l-12.7,45.63-2.04,2.29-.85.32-.72-.21-.47-.51-.05-.55-1.4-3.34-2.48-2.01-3.14-.56-3.25,1.21-3.12,2.33-2.17,3.59-1.29,3.98.24,3.98,1.26,3.16,2.48,2.01,3.15.56,3.4-1.03,2.97-2.51h1.17s1.02.47,1.02.47l.57,1.32,8.57,14.24,4.18.21,5.46,10-3.08,1.47,5.63,18.23-.11,2.41-1.12.9-1.2.45-.28.23-.67.04-.58-.27-.45-.56.03-.69-1.41-3.34-2.5-1.96-3.08-.59-3.4,1.15-3.02,2.37-2.26,3.54-1.22,4.08.14,3.93,1.42,3.17,2.43,1.99,3.15.56,3.45-1.12.75-1.01,1.16-.35,1.42.36,24.02,19.95-5.41,3.63-3.57-2.33-1.41-.12-1.32.57-.76.89-2.81,6.16,1.79,3.52,3.39,2.6,1.35,7.07,17.11.54-3.14,115.34-6.3,5.57,6.21,2.84.55,8.81-3.99,2.69.72,119.21,4.14,86.05.46-201.25Z"/>
  <path class="cls-2" d="m74.02,591.99l-5.34-2.44"/>
  <path class="cls-2" d="m59.55,619.17l5.77,2.64"/>
  <path class="cls-2" d="m56.92,645.47l5.01,2"/>
  <path class="cls-2" d="m102.48,532.39l-5.39-2.46"/>
  <path class="cls-2" d="m81.87,559.28l4.9,2.24"/>
  <path class="cls-6" d="m146.4,608.3l-16.17,17.35-3.68-2.78,16.42-16.69,3.43,2.12Z"/>
  <path class="cls-4" d="m146.03,629.57l3.41-157.86"/>
  <path class="cls-5" d="m142.63,631.59l3.41-157.86"/>
  <path class="cls-5" d="m138.32,633.19l3.41-157.86"/>
  <path class="cls-5" d="m134.02,634.8l3.41-157.86"/>
  <path class="cls-5" d="m130.57,641.74l2.55-163.2"/>
</svg>