<?xml version="1.0" encoding="UTF-8"?>
<svg id="Layer_1" data-name="Layer 1" xmlns="http://www.w3.org/2000/svg" viewBox="0 0 248.62 480.51">
  <defs>
    <style>
      .cls-1, .cls-2, .cls-3 {
        stroke-linecap: round;
        stroke-linejoin: round;
      }

      .cls-1, .cls-2, .cls-3, .cls-4, .cls-5 {
        fill: none;
        stroke: #000;
      }

      .cls-2 {
        stroke-width: 2px;
      }

      .cls-3 {
        stroke-width: .4px;
      }

      .cls-4 {
        stroke-width: .77px;
      }

      .cls-6 {
        fill-rule: evenodd;
      }
    </style>
  </defs>
  <path class="cls-6" d="m146.42,39.51l-11.15.32-.43-6.78-1.39-6.19-3.09-5.6-4.48-4.91-5.55-3.68-6.19-2.02-3.26-.32-3.41.16-3.04.8-5.55,1.97-5.44,3.42-4.58,2.93-3.9,2.45-4.96,2.19-3.04-6.67,11.53-8,5.44-3.57,5.87-2.78,7.26-2.35,7.41-.69,4.91.43,7.09,1.39,6.35,2.93,5.55,4.48,4.48,5.39,2.45,5.12,1.39,5.71,1.44,13.76-19.63-28.75,2.29,1.07,2.83,1.71,3.1,2.67,2.56,2.14.21-.64-.48-.75-.91-1.71-2.5-3.25-2.78-2.61-3.52-2.45-4.38-2.51v4.96l-4.91-1.55V3.4h-8.64l-4.48.59-4,.96-4,1.39-4.05,1.71-3.1,1.55-3.09,2.03-.48.75-.11.32v1.39l.59,1.07,1.07.48,4.96-3.09,3.84-1.87,4.05-1.55,4.32-.8,4.48-.58h8.64l4.91,1.55,3.58,1.39,19.63,28.75-1.71.11Z"/>
  <path class="cls-3" d="m146.42,39.51l-11.15.32-.43-6.78-1.39-6.19-3.09-5.6-4.48-4.91-5.55-3.68-6.19-2.02-3.26-.32-3.41.16-3.04.8-5.55,1.97-5.44,3.42-4.58,2.93-3.9,2.45-4.96,2.19-3.04-6.67,11.53-8,5.44-3.57,5.87-2.78,7.26-2.35,7.41-.69,4.91.43,7.09,1.39,6.35,2.93,5.55,4.48,4.48,5.39,2.45,5.12,1.39,5.71,1.44,13.76-19.63-28.75,2.29,1.07,2.83,1.71,3.1,2.67,2.56,2.14.21-.64-.48-.75-.91-1.71-2.5-3.25-2.78-2.61-3.52-2.45-4.38-2.51v4.96l-4.91-1.55V3.4h-8.64l-4.48.59-4,.96-4,1.39-4.05,1.71-3.1,1.55-3.09,2.03-.48.75-.11.32v1.39l.59,1.07,1.07.48,4.96-3.09,3.84-1.87,4.05-1.55,4.32-.8,4.48-.58h8.64l4.91,1.55,3.58,1.39,19.63,28.75-1.71.11Z"/>
  <path class="cls-6" d="m161.67,390.36l1.28.59,1.17-.59v-8.05l-1.17-.64-1.28.64v8.05Z"/>
  <path class="cls-3" d="m161.67,390.36l1.28.59,1.17-.59v-8.05l-1.17-.64-1.28.64v8.05Z"/>
  <path class="cls-6" d="m161.67,374.25l1.28.64,1.17-.64v-9.87l-1.17-.58-1.28.58v9.87Z"/>
  <path class="cls-3" d="m161.67,374.25l1.28.64,1.17-.64v-9.87l-1.17-.58-1.28.58v9.87Z"/>
  <path class="cls-6" d="m59.47,23.77h-4.91v2.35l-5.28-5.92-35.2,7.1L.2,37.64l45.55,3.9,8.8-6.19v2.67h4.91v-14.25Z"/>
  <path class="cls-3" d="m59.47,23.77h-4.91v2.35l-5.28-5.92-35.2,7.1L.2,37.64l45.55,3.9,8.8-6.19v2.67h4.91v-14.25Z"/>
  <path class="cls-6" d="m59.47,32.26l9.6.64,9.45-1.38,8.48-3.42,5.55-3.04,4.91-3.31,4.64-2.72,5.39-1.87h5.76l5.87,1.87,4.27,4,3.09,5.55,1.6,6.35.43,6.61-1.81-7.09-2.67-6.03-3.57-4.32-3.52-2.03h-4.16l-3.84,1.12-2.51,1.65-6.03,3.73-6.46,2.94-6.18,1.87-5.23,1.07-5.87.74-8.64.16-8.53-1.23v-1.87Z"/>
  <path class="cls-3" d="m59.47,32.26l9.6.64,9.45-1.38,8.48-3.42,5.55-3.04,4.91-3.31,4.64-2.72,5.39-1.87h5.76l5.87,1.87,4.27,4,3.09,5.55,1.6,6.35.43,6.61-1.81-7.09-2.67-6.03-3.57-4.32-3.52-2.03h-4.16l-3.84,1.12-2.51,1.65-6.03,3.73-6.46,2.94-6.18,1.87-5.23,1.07-5.87.74-8.64.16-8.53-1.23v-1.87Z"/>
  <path class="cls-6" d="m191.92,249.37l.21,1.23.59.59,7.09,2.35,5.28,2.13,4.96,2.35.27,1.55-3.41-1.71-1.65-.16-1.12.8-3.36,7.52v1.55l.59.8,3.89,2.14h.75l1.54-1.07,3.1-6.94.48-1.87-.8-1.07-.27-1.55,4.75,3.1,3.84,3.52,4.05,4.7-.75.58-.8-1.07-2.61-1.76-1.44-.11-1.07,1.07-2.77,4.64-.16,1.07.16.75.64.69,2.61,1.65,1.39.16,1.07-.75,2.78-4.8.21-1.55.75-.58,1.97,2.24,1.07,1.12.8.48.59-.32.64-2.03.33-2.29.16-2.35-.16-2.29-.59-2.61-1.76-2.67-13.71-11.1-2.77-1.07-3.25-.64-3.09-.26-3.2.26-3.09.64-3.26,1.07-.96.75-.48,1.12-24.22-10.93.48-3.15,1.71-2.29,2.03-1.55,2.56-1.12,4.37-.59,4.32.32,7.41,1.55,10.62,3.68,10.24,4.32,8.64,5.12,8.01,6.03,6.02,5.55,4.91,5.39,4.06,6.19,3.09,6.83,2.13,6.77.32,2.46-.16,2.67-.48,1.81-1.07,1.71-4.16.48-5.87.16-7.9-1.28-9.39-2.77-8.8-3.52-9.71-5.28-8.8-6.45-3.57-2.93-3.09-2.78-2.94-2.93-2.93-3.42-2.45-2.61-2.93-3.73-2.45-3.2-1.71-3.25-1.6-3.89-.91-4.27,24.22,10.94Z"/>
  <path class="cls-6" d="m220.19,290.87l-11.58-4.48-10.45-5.87-9.76-6.93-8.64-8.16-7.58-9.44,2.51,14.99,18.67,11.15.59,6.13,4.96,4.37-6.3,30.03-4.21,25.66-3.1,102.1-7.52-3.15,3.84-102.63,2.13-15.9,4.38-20.43,5.82-20.06-.59-6.13-5.92,14.61-4.43,15.31-2.77,15.79-1.28,14.94-15.41-16.21,2.45-24.06,8.69-31.53-2.51-14.99-4.75,22.73-7.09,25.82-6.08,34.51,10.56,4.37,3.68,9.28v53.72l-9.28,7.42,3.74,3.68,12.96-9.92v20.43l-12.96-3.74v4.38l2.13,1.17,1.97,1.76,2.02,2.13,1.87,2.13.59,1.28,1.87,3.04.48,2.82.96,3.2-.16,2.45-.64,2.03-.96,1.71-1.82,1.12-1.07.91-2.35-.21-2.29-.69-1.71-1.76-2.77-1.65-1.44-2.03-1.66-3.25-1.39-2.3-.74-2.93-.32-3.41v-2.35l.75-2.24,1.23-1.44,1.71-.91,1.71-.48,2.03-.11v-11.15l-3.74-3.68-4.96-3.1-4.16,55.11-8.59,3.42v-.64l-.21-.27-.48-.37h-.59l-11.74-9.87h-4.48l1.12,6.35,2.72,5.87,4,4.96,5.17,3.68,1.81.9h4.48l4.32-1.65,3.41-2.94,1.55-2.35,5.07,4,6.03,2.51,6.51,1.07,6.29-.64,6.35-.8,5.87-2.24,5.07-3.73,4.05-4.96,2.45-5.71.32-.91,3.42-12.48,1.81-12.96.16-13.02-.75-9.39-.64-4.21-1.23-17.76.32-17.93,1.65-17.39,2.94-17.92,5.12-17.77,3.57-8.05,3.42-7.52,4-6.35,4.75-5.87-8.96-2.03Z"/>
  <path class="cls-6" d="m153.03,331.52l-.59-4.37-1.71-4-2.77-2.72-3.25-1.55h-3.41l-3.2,1.55-2.67,2.93-1.71,3.79-.59,4.48.59,4.38,1.71,4-1.07,1.23-.64,2.19.64,2.14,1.54,1.55,2.19.64,2.14-.64,1.54-1.55.32-1.23h2.78l3.25-1.55,2.61-2.93,1.71-3.84.59-4.48,1.23,7.52,4.32,21.07-3.04,6.14-.64-4.48-1.87-3.9-2.94-2.93-3.41-1.55h-3.68l-3.36,1.55-2.83,2.93-1.81,3.9-.64,4.48.64,4.48,1.81,3.84,2.83,2.99,3.52,1.5h3.52l3.57-1.5,2.78-2.99,1.87-4,.64-4.32,3.04-6.14-1.17,38.89-3.15,11.73-2.45-2.19,1.87-3.84.59-4.48-.59-4.48-1.87-3.84-2.77-2.93-3.26-1.55h-3.52l-3.41,1.55-2.77,2.93-1.07-2.03,1.33-1.39.48-1.87-.48-1.87-1.33-1.33-1.87-.48-1.87.48-1.39,1.33-.48,1.87.48,1.87,1.39,1.39,1.87.48,1.87-.48,1.07,2.03-1.71,4-.64,4.32.64,4.48,1.87,3.84,2.61,2.93,3.41,1.55h3.52l3.41-1.55,2.62-2.93,2.45,2.19-4.16,55.11-.59-4.64-2.19-4.16-3.58-3.09-4.27-1.71-4.64-.16h-.32l-3.25,1.44-2.13,2.56-.64,2.03h-.16l-4-4.96-2.61-5.87-1.28-6.29-15.9-4.48,3.41-54.68h11.42v-11.41l3.25-.43-1.87,1.81-.59,2.45.59,2.5,1.87,1.87,2.51.58,2.45-.58,1.71-1.87.74-2.5-.74-2.45-1.71-1.81-2.45-.64-2.51.64-3.25.43h-6.94l1.28-21.77,13.23.64-.64,2.14.64,2.19,1.54,1.55,2.19.58,2.13-.58,1.55-1.55.64-2.19-.64-2.14-1.55-1.76-2.13-.42-2.19.42-1.54,1.76-13.23-.64h-4.7l-2.29-33.02h5.71v-11.47h5.76l16.81-1.39.42,4,1.87,3.41,2.61,2.45,3.26.96,3.41-.59,2.93-2.03,2.03-3.26.91-4.64,7.89,1.44-6.08,34.51-1.23-7.52Z"/>
  <path class="cls-3" d="m153.03,331.52l-.59-4.37-1.71-4-2.77-2.72-3.25-1.55h-3.41l-3.2,1.55-2.67,2.93-1.71,3.79-.59,4.48.59,4.38,1.71,4-1.07,1.23-.64,2.19.64,2.14,1.54,1.55,2.19.64,2.14-.64,1.54-1.55.32-1.23h2.78l3.25-1.55,2.61-2.93,1.71-3.84.59-4.48,1.23,7.52,4.32,21.07-3.04,6.14-.64-4.48-1.87-3.9-2.94-2.93-3.41-1.55h-3.68l-3.36,1.55-2.83,2.93-1.81,3.9-.64,4.48.64,4.48,1.81,3.84,2.83,2.99,3.52,1.5h3.52l3.57-1.5,2.78-2.99,1.87-4,.64-4.32,3.04-6.14-1.17,38.89-3.15,11.73-2.45-2.19,1.87-3.84.59-4.48-.59-4.48-1.87-3.84-2.77-2.93-3.26-1.55h-3.52l-3.41,1.55-2.77,2.93-1.07-2.03,1.33-1.39.48-1.87-.48-1.87-1.33-1.33-1.87-.48-1.87.48-1.39,1.33-.48,1.87.48,1.87,1.39,1.39,1.87.48,1.87-.48,1.07,2.03-1.71,4-.64,4.32.64,4.48,1.87,3.84,2.61,2.93,3.41,1.55h3.52l3.41-1.55,2.62-2.93,2.45,2.19-4.16,55.11-.59-4.64-2.19-4.16-3.58-3.09-4.27-1.71-4.64-.16h-.32l-3.25,1.44-2.13,2.56-.64,2.03h-.16l-4-4.96-2.61-5.87-1.28-6.29-15.9-4.48,3.41-54.68h11.42v-11.41l3.25-.43-1.87,1.81-.59,2.45.59,2.5,1.87,1.87,2.51.58,2.45-.58,1.71-1.87.74-2.5-.74-2.45-1.71-1.81-2.45-.64-2.51.64-3.25.43h-6.94l1.28-21.77,13.23.64-.64,2.14.64,2.19,1.54,1.55,2.19.58,2.13-.58,1.55-1.55.64-2.19-.64-2.14-1.55-1.76-2.13-.42-2.19.42-1.54,1.76-13.23-.64h-4.7l-2.29-33.02h5.71v-11.47h5.76l16.81-1.39.42,4,1.87,3.41,2.61,2.45,3.26.96,3.41-.59,2.93-2.03,2.03-3.26.91-4.64,7.89,1.44-6.08,34.51-1.23-7.52Z"/>
  <path class="cls-6" d="m134.2,197.63l.48-3.84,1.39-3.41,2.29-2.29,2.77-.96,2.51.64-.32-1.23.8-2.51,1.87-1.87,2.72-.69-2.61-.64-1.87-1.87-.48-1.87-2.72-.11-3.09-1.55-2.34-2.93-15.26.91-2.14,130.75,16.81-1.39.74-4,2.03-3.2,2.77-2.19,3.2-.75,3.31.91,2.72,2.13,1.87,3.41.8,4,7.89,1.44-11.47-21.34-2.88,2.03-3.41.59-3.31-.96-2.56-2.45-1.87-3.41-.48-4,.8-4,1.87-3.2,2.88-2.35,3.26-.58,3.25.75,2.77,2.29,1.87,3.41.75,4-.16.74-.75,3.89-2.03,3.25,11.47,21.34.1-66.89-8.64,4.59,1.87,3.57.59,4.21-.27,2.56-1.39,3.89-2.51,2.78-3.04,1.55-3.41.16-3.25-1.55-2.45-2.93-1.39-3.73-.32-4.16,1.07-4,2.19-3.25,2.93-2.03,3.36-.43,3.26.91,2.77,2.46,8.64-4.59,5.55-5.71-1.07-21.76-11.89,14.19-1.39,3.52-2.61,2.67-3.26,1.39-3.52-.16-3.09-1.71-2.35-3.09-1.07-3.68.32-3.89,1.86-3.42,2.78-2.29,3.41-.91,3.52.48v-11.42l-.75,1.65-2.19,2.45-2.78,1.07-2.77-.43-2.45-2.03"/>
  <path class="cls-6" d="m135.27,39.83c-11.01,2.78-13.52.92-13.64,12-.16,15.12-.32,30.24-.48,45.36-.27,25.41-.54,50.81-.81,76.22,5.09-.3,10.17-.6,15.26-.91-3.32-7.54,1.89-15.18,10.03-13.76,6.56,1.14,10.99,9.97,15.47,14.35.17-3.74-3.04-5.43-5.61-7.95-2.94-2.87-1.96-6.02-1.96-10.08,8.24,5.68,7.58,6.89,7.58,16.8,0,5.63-2.16,15.38,1.39,19.74l4.32-41.5c-3.99,1.13-.99,10.27-5.13,7.38-7.47-5.2-8.15-5.18-8.15-14.21,3.41,2.38,9.02,8.77,13.28,6.83-4.28-3.09-8.55-6.18-12.83-9.27-.86-.62-10.6-6.29-7.23-1.24,6.2,9.31-9.28,14.21-7.9,3.36.81-6.32,5.8-2.86,7.15-4.48,2.83-3.4.65-10.46.32-14.78-.83-10.95-.8-21.77-.8-32.75-2.69.91-10.18,13.13-11.84,1.23-.49-3.51,2.11-8.28,6.19-6.61,4.07,1.67,1.68,7.08,6.72,4.93,6.23-2.66,3.41,18.41,3.41,21.94,0,6.51-3.81,24.32,3.52,28.07-1.17-23.77-2.35-47.55-3.52-71.32-.89.57-1.78,1.14-2.67,1.71,0-6.75,2.19-9.56,2.19-16.02,0-2.71.58-6.17,0-8.83-.27-1.25-3.09,1.68-3.09-1.02,0-1.64-.4-3.9,0-5.49-3.72.1-7.43.21-11.15.31h0Z"/>
  <path class="cls-2" d="m59.47,25.16l7.89.96,7.84-.8,4.8-1.06"/>
  <path class="cls-3" d="m229.15,292.9l5.76.64,5.54-.48,5.07-1.87,1.39-1.07"/>
  <path class="cls-1" d="m144.23,367.48l-.59-2.19-1.55-1.49-2.18-.64-2.13.64-1.55,1.49-.64,2.19.64,2.19,1.55,1.55,2.13.59,2.18-.59,1.55-1.55.59-2.19Z"/>
  <path class="cls-1" d="m142.09,344.32l.32-.91-.64-2.19-1.54-1.71-2.14-.48-2.19.48-.48.48"/>
  <path class="cls-2" d="m145.53,212.15s11,1.5,7.83,13.5"/>
  <path class="cls-5" d="m168.68,235.29s-4.49,11.69,4.34,22.53"/>
  <ellipse class="cls-5" cx="152.36" cy="168.73" rx="5.17" ry="5.08"/>
  <ellipse class="cls-5" cx="152.36" cy="179.4" rx="5.17" ry="5.08"/>
  <ellipse class="cls-5" cx="152.36" cy="190.06" rx="5.17" ry="5.08"/>
  <ellipse class="cls-5" cx="152.36" cy="200.73" rx="5.17" ry="5.08"/>
  <ellipse class="cls-4" cx="153.69" cy="210.4" rx="3.98" ry="3.92"/>
  <path class="cls-5" d="m141.86,186.48s6.33,3,6.67,10.5"/>
  <path class="cls-5" d="m142.53,177.31s4.17,2,8.33-3.67"/>
</svg>