<?xml version="1.0" standalone="no"?>
<!DOCTYPE svg PUBLIC "-//W3C//DTD SVG 20010904//EN"
 "http://www.w3.org/TR/2001/REC-SVG-20010904/DTD/svg10.dtd">
<svg version="1.0" xmlns="http://www.w3.org/2000/svg"
 width="1280.000000pt" height="640.000000pt" viewBox="0 0 1280.000000 640.000000"
 preserveAspectRatio="xMidYMid meet">
<metadata>
Created by potrace 1.15, written by Peter Selinger 2001-2017
</metadata>
<g transform="translate(0.000000,640.000000) scale(0.100000,-0.100000)"
fill="#000000" stroke="none">
<path d="M12425 5166 c-60 -27 -106 -87 -173 -226 -35 -74 -77 -168 -92 -207
-39 -102 -178 -266 -271 -321 -108 -65 -408 -142 -726 -187 -418 -59 -904 -86
-2228 -125 -1083 -31 -1395 -35 -1395 -20 0 11 -49 12 -263 7 -297 -8 -348 -2
-429 47 -60 36 -88 82 -88 144 0 81 45 131 195 218 79 46 85 51 83 79 -4 42
-34 46 -43 5 -6 -25 -16 -35 -51 -50 -108 -47 -223 -147 -244 -214 -23 -70 2
-164 59 -225 l27 -29 -83 -6 c-46 -4 -88 -4 -93 -1 -13 8 -13 42 0 50 6 3 10
42 10 86 l0 80 -37 16 c-21 8 -58 18 -83 22 l-45 6 -3 142 -3 142 38 6 c21 4
45 7 53 8 11 2 16 18 18 64 3 61 2 63 -25 70 -37 10 -217 10 -266 0 l-38 -8 3
-62 c3 -61 4 -62 33 -65 80 -7 75 4 75 -156 l0 -143 -49 -6 c-27 -3 -65 -13
-85 -21 l-36 -15 0 -78 c0 -44 5 -84 11 -90 6 -6 9 -21 7 -34 -3 -22 -9 -24
-65 -27 l-63 -4 0 34 c0 19 5 39 10 44 6 6 10 41 8 79 -3 65 -5 70 -34 87 -16
10 -55 21 -85 25 l-54 8 -3 141 c-3 140 -2 142 20 148 13 3 38 6 56 6 l32 0 0
65 c0 62 -1 65 -27 72 -35 10 -229 10 -265 0 -27 -7 -28 -10 -28 -72 l0 -65
43 0 c68 0 68 0 65 -156 l-3 -139 -50 -7 c-27 -4 -67 -15 -88 -24 l-38 -18 5
-75 c2 -42 8 -95 11 -118 l7 -43 -87 0 -87 0 7 43 c3 23 9 77 11 120 l6 77
-39 17 c-21 9 -59 18 -85 21 l-48 5 0 143 0 143 38 6 c20 4 44 7 52 8 11 2 16
18 18 64 3 61 2 63 -25 70 -36 10 -217 10 -265 0 l-38 -8 0 -64 0 -65 39 0
c73 0 71 4 71 -155 l0 -142 -49 -6 c-27 -3 -65 -13 -85 -21 l-36 -15 0 -78 c0
-44 5 -84 11 -90 6 -6 9 -26 7 -44 l-3 -34 -2040 -1 -2040 -2 -25 24 c-62 57
-189 83 -412 84 l-107 0 -27 45 -26 45 -123 0 -122 0 -25 -38 c-133 -201 -141
-399 -23 -590 l41 -67 121 -3 122 -3 28 51 28 50 115 0 c139 0 279 15 327 35
19 8 51 27 71 43 l37 28 945 3 945 3 -86 -89 c-177 -182 -267 -368 -300 -618
-37 -289 70 -647 246 -819 124 -122 338 -205 631 -246 38 -5 95 -21 126 -35
44 -20 210 -57 253 -55 300 7 1074 10 1078 4 4 -8 142 -3 222 8 19 3 20 -4 23
-219 2 -214 2 -222 -18 -233 -17 -9 -20 -21 -20 -86 l0 -75 36 -15 c20 -8 71
-20 115 -27 94 -13 238 1 297 30 l37 18 3 72 c3 64 1 73 -18 83 -27 15 -28 75
-1 90 26 13 80 13 120 -1 28 -10 31 -15 31 -50 0 -28 -4 -39 -15 -39 -13 0
-15 -14 -13 -82 3 -79 4 -83 31 -96 15 -7 68 -18 117 -25 97 -12 231 1 297 28
l33 14 0 76 c0 58 -3 77 -15 81 -10 4 -15 20 -15 49 0 53 20 63 86 45 41 -12
44 -15 44 -46 0 -23 -6 -37 -20 -44 -17 -9 -20 -21 -20 -78 0 -37 4 -73 9 -80
26 -41 230 -63 360 -39 110 21 121 32 121 118 0 58 -3 70 -20 79 -19 10 -20
21 -20 230 l0 220 746 0 745 0 -3 -46 -3 -46 -260 0 c-447 1 -405 -2 -405 28
0 23 -3 25 -32 22 -28 -2 -33 -7 -33 -28 0 -35 -29 -33 -33 3 -3 24 -8 27 -38
27 l-34 0 0 -80 0 -80 35 0 c33 0 35 2 35 35 0 24 5 35 15 35 10 0 15 -11 15
-35 0 -33 2 -35 35 -35 33 0 35 2 35 35 l0 35 335 0 335 0 0 -30 0 -30 75 0
75 0 0 30 c0 27 3 30 30 30 27 0 30 -3 30 -30 l0 -30 75 0 75 0 0 30 c0 28 2
30 41 30 33 0 40 3 37 18 -2 12 -13 17 -38 17 -35 0 -35 1 -38 48 l-3 47 195
0 c108 0 196 -3 196 -7 0 -8 225 -8 250 0 8 2 53 10 99 16 81 10 86 10 108
-11 l23 -22 -26 -27 c-33 -35 -27 -50 29 -84 36 -20 50 -24 68 -16 13 5 40 12
59 16 19 3 71 25 115 48 66 35 89 54 129 107 l49 65 96 12 c53 7 136 24 185
38 49 14 93 22 97 18 4 -4 3 -27 -4 -50 -14 -55 2 -78 47 -68 17 4 60 8 96 9
81 1 144 30 253 117 96 77 161 161 232 304 96 194 137 339 116 410 -5 17 -10
23 -10 14 -1 -9 -10 -46 -21 -82 -21 -69 -76 -156 -172 -274 l-58 -71 -37 19
c-20 10 -48 19 -60 19 -13 0 -23 2 -23 5 0 3 15 50 34 103 18 53 44 149 57
212 21 102 24 140 23 335 0 177 -5 240 -21 323 l-20 104 56 -7 c230 -28 612
-106 810 -165 272 -83 370 -132 494 -250 91 -86 117 -126 156 -242 32 -93 121
-275 179 -362 37 -58 80 -87 113 -79 75 20 239 266 294 443 61 197 118 541
136 830 20 305 -5 920 -45 1105 -39 183 -148 390 -227 430 -34 18 -55 18 -94
1z m-7370 -2003 l0 -563 -25 0 c-14 1 -36 7 -50 15 -30 17 -171 20 -187 4 -8
-8 -147 -9 -500 -5 -268 4 -510 7 -538 8 -138 1 -265 -37 -338 -101 -42 -38
-107 -160 -108 -205 -1 -65 -4 -66 -99 -43 -206 52 -341 198 -400 431 -49 192
-10 514 82 689 54 101 191 213 338 276 145 63 96 60 1000 58 l825 -2 0 -562z
m546 557 l39 0 0 -434 c0 -395 -2 -437 -17 -465 -10 -17 -26 -34 -36 -37 -30
-9 -76 6 -97 33 -19 25 -20 40 -20 471 l0 445 46 -7 c26 -3 64 -6 85 -6z m589
-459 c0 -494 2 -479 -69 -466 -20 4 -42 12 -49 19 -11 11 -16 323 -12 864 0
21 4 22 65 22 l65 0 0 -439z m930 414 c480 -15 598 -20 905 -35 105 -6 386
-19 625 -30 239 -11 450 -23 468 -26 30 -5 32 -7 32 -49 0 -30 5 -47 16 -53
13 -7 15 -59 16 -438 l0 -429 -38 3 c-59 5 -130 4 -491 -3 -304 -7 -333 -6
-333 9 0 9 8 16 20 16 11 0 20 7 20 15 0 8 -9 15 -20 15 -16 0 -20 7 -20 30 0
29 -1 30 -49 30 -56 0 -61 4 -54 43 4 20 11 27 28 27 25 0 42 28 21 36 -7 3
-48 4 -92 2 -66 -3 -79 -6 -82 -20 -3 -14 3 -18 27 -18 29 0 31 -3 31 -35 l0
-35 -49 0 c-47 0 -50 -2 -53 -27 l-3 -28 -475 -3 -474 -2 41 42 c62 65 77 101
78 188 0 116 -43 187 -149 243 -64 33 -164 30 -234 -8 -193 -105 -185 -379 12
-471 l51 -24 578 0 c507 0 577 -2 577 -15 0 -13 -84 -15 -722 -13 l-723 3 -3
525 c-1 289 0 531 3 538 5 15 -38 15 515 -3z m2607 -130 c423 -32 473 -36 499
-46 58 -21 116 -434 93 -664 -30 -300 -171 -502 -398 -569 -30 -9 -67 -16 -82
-16 -25 0 -30 5 -40 42 -6 24 -20 61 -31 83 -27 52 -109 177 -114 172 -2 -2 5
-30 17 -63 11 -32 29 -96 39 -141 l18 -83 -112 0 -111 0 -12 60 c-21 111 -85
205 -169 248 l-36 18 0 425 c1 233 1 434 2 447 0 15 6 22 20 22 17 0 20 7 20
45 0 55 -41 53 397 20z m-3563 -875 l26 -10 0 -223 c0 -160 -3 -226 -12 -235
-16 -16 -80 -15 -101 1 -15 10 -17 33 -18 167 -1 310 -2 298 24 303 40 8 55 7
81 -3z m-563 -12 c28 -8 39 -17 39 -31 0 -15 -4 -17 -17 -11 -10 4 -49 10 -87
13 -53 5 -66 9 -55 17 32 26 65 29 120 12z m-1886 -338 c4 -6 58 -10 131 -10
76 0 124 4 124 10 0 7 145 10 414 10 266 0 417 -4 421 -10 3 -5 35 -10 71 -10
l64 0 0 -64 0 -64 -154 -7 c-233 -11 -1168 0 -1194 14 -43 23 -51 83 -15 112
26 22 128 36 138 19z m5125 0 c0 -14 243 -13 257 1 6 6 22 9 35 6 21 -6 23
-11 20 -42 l-4 -35 -1219 0 c-801 0 -1220 3 -1224 10 -3 6 -28 10 -56 10 -45
0 -49 2 -49 23 0 13 3 27 7 30 11 12 2233 8 2233 -3z m-3200 -80 c0 -77 -1
-80 -19 -70 -11 5 -49 10 -85 10 l-66 0 0 65 0 64 78 4 c42 1 80 4 85 5 4 1 7
-34 7 -78z m4799 26 c9 -8 32 -18 51 -23 28 -7 36 -15 38 -37 4 -33 -37 -74
-122 -123 -52 -30 -55 -30 -61 -12 -4 10 -18 22 -33 25 -57 12 -57 14 -1 63
31 27 66 65 80 85 27 41 27 41 48 22z m-4265 -222 c14 -5 16 -30 16 -171 0
-211 -14 -243 -96 -227 l-34 6 -1 97 c-1 165 2 285 7 293 6 9 85 11 108 2z
m3464 -100 c8 -6 -34 -52 -65 -73 -40 -26 -50 -26 -58 -2 -6 19 -58 45 -69 33
-6 -6 -56 37 -56 48 0 7 241 1 248 -6z m-3998 -160 c0 -53 -4 -93 -9 -90 -5 3
-16 -5 -25 -19 -22 -33 -86 -35 -116 -5 -18 18 -20 31 -18 108 l3 87 73 2 c40
0 76 4 79 7 12 12 13 5 13 -90z m2660 52 c0 -41 -2 -44 -30 -48 -30 -5 -30 -4
-30 44 0 47 1 48 30 48 29 0 30 -2 30 -44z"/>
</g>
</svg>
