<?xml version="1.0" encoding="UTF-8"?>
<svg id="Layer_1" data-name="Layer 1" xmlns="http://www.w3.org/2000/svg" viewBox="0 0 202.05 499.11">
  <defs>
    <style>
      .cls-1 {
        stroke-width: .4px;
      }

      .cls-1, .cls-2 {
        fill: none;
        stroke: #000;
        stroke-linecap: round;
        stroke-linejoin: round;
      }

      .cls-2 {
        stroke-width: 2.12px;
      }

      .cls-3 {
        fill-rule: evenodd;
      }
    </style>
  </defs>
  <path class="cls-3" d="m130.57,88.96l11.09,228.69h-1.54l-10.51-228.69h.96Z"/>
  <path class="cls-1" d="m130.57,88.96l11.09,228.69h-1.54l-10.51-228.69h.96Z"/>
  <path class="cls-3" d="m138.89,317.65h-5.87l-7.58-228.69h1.71l9.07,220.95,2.67,7.74Z"/>
  <path class="cls-1" d="m138.89,317.65h-5.87l-7.58-228.69h1.71l9.07,220.95,2.67,7.74Z"/>
  <path class="cls-3" d="m129.61,317.65h-5.07l-4.48-228.69h2.45l6.19,225.27.91,3.42Z"/>
  <path class="cls-1" d="m129.61,317.65h-5.07l-4.48-228.69h2.45l6.19,225.27.91,3.42Z"/>
  <path class="cls-3" d="m108.64,86.51l-5.12-24.43h-10.35v6.35l-2.93-.32-4-1.54-3.15-1.97-1.98-1.39-.96-1.12-.59-1.07-.32-1.23-.16-1.23.16-1.28.48-1.17.64-1.07.75-.96.91-.64,2.02-1.34,2.19-1.28,2.29-.96,2.35-.59,2.3-.48v8.38h9.6l-1.44-15.9h-12v6.35l-1.76-.21-2.45-.59-2.3-.74-2.19-.96-1.97-1.38-2.03-1.39-.16-.16-.8-.91-.58-1.07-.33-1.28-.16-1.23.16-1.23.33-1.23.58-1.07.96-.96.91-.59,2.03-1.39,2.19-1.28,2.13-.91,2.51-.64,2.93-.43v8.32h6.93l3.2-3.68-.43-28.43L104.59.2h15.63l.9,7.84,4.64,2.93v4.48l2.94.8v8.48h-2.51l-3.2,1.55,3.36,3.09h-7.42l3.74,16.49h11.89v-8h.91l2.29.48,4.69,1.87,1.97,1.39,2.03,1.33.9,1.12.64,1.07.27,1.23.16,1.28-.16,1.18-.43,1.28-.64,1.07-.75.96-2.93,1.97-2.19,1.23-2.29.91-2.35.64-2.14.32v-6.35h-11.41l5.07,19.15h11.26l-.43-7.9,1.17.16,2.35.64,2.35.75,2.13.96,2.13,1.39,2.03,1.39.9,1.07.64,1.12.32,1.18.16,1.28-.16,1.23-.48,1.23-.59,1.07-.8.96-.91.75-2.02,1.39-2.14,1.07-2.35.96-2.3.59h-2.03v-6.29h-10.77l1.07,3.52.43,3.41.38,7.1h-20.38l-1.55-2.45Z"/>
  <path class="cls-1" d="m108.64,86.51l-5.12-24.43h-10.35v6.35l-2.93-.32-4-1.54-3.15-1.97-1.98-1.39-.96-1.12-.59-1.07-.32-1.23-.16-1.23.16-1.28.48-1.17.64-1.07.75-.96.91-.64,2.02-1.34,2.19-1.28,2.29-.96,2.35-.59,2.3-.48v8.38h9.6l-1.44-15.9h-12v6.35l-1.76-.21-2.45-.59-2.3-.74-2.19-.96-1.97-1.38-2.03-1.39-.16-.16-.8-.91-.58-1.07-.33-1.28-.16-1.23.16-1.23.33-1.23.58-1.07.96-.96.91-.59,2.03-1.39,2.19-1.28,2.13-.91,2.51-.64,2.93-.43v8.32h6.93l3.2-3.68-.43-28.43L104.59.2h15.63l.9,7.84,4.64,2.93v4.48l2.94.8v8.48h-2.51l-3.2,1.55,3.36,3.09h-7.42l3.74,16.49h11.89v-8h.91l2.29.48,4.69,1.87,1.97,1.39,2.03,1.33.9,1.12.64,1.07.27,1.23.16,1.28-.16,1.18-.43,1.28-.64,1.07-.75.96-2.93,1.97-2.19,1.23-2.29.91-2.35.64-2.14.32v-6.35h-11.41l5.07,19.15h11.26l-.43-7.9,1.17.16,2.35.64,2.35.75,2.13.96,2.13,1.39,2.03,1.39.9,1.07.64,1.12.32,1.18.16,1.28-.16,1.23-.48,1.23-.59,1.07-.8.96-.91.75-2.02,1.39-2.14,1.07-2.35.96-2.3.59h-2.03v-6.29h-10.77l1.07,3.52.43,3.41.38,7.1h-20.38l-1.55-2.45Z"/>
  <path class="cls-3" d="m96.27,199.22l-7.41,1.49-6.35,2.02-5.55,2.93-5.39,4-4.8,4.48-4.16,5.12-3.73,5.55-3.1,5.87-2.29,6.19-.43,1.71-2.02,8.8-1.28,8.91v8.85l1.28,8.59,2.02,8.96.59,2.02.59,2.03.8,4.48.16,4.64-.8,4.48-1.33,4.32,2.72,2.77h.48l2.77.11,2.78.96,2.35,1.55,1.97,1.97,1.28,2.67.59,2.78,1.07,4.9.96,7.15.11,7.1-.59,7.25-1.23,6.93-2.02,6.93-2.78,6.67-4.16,6.35-3.1,2.61-3.68,2.14-3.89,1.55-4.32.8-3.52,6.35,1.87,2.72.91,2.94.16,2.83-3.73,6.14-3.1,6.67-2.3,6.77-1.71,6.93-.96,7.15-.11,7.2.48,7.15,1.39,7.09,1.97,6.94,2.61,6.61,3.41,6.35,4,6.03,4.64,5.39,5.28,5.12,5.55,4.48,6.19,3.84,3.36,1.71-26.99-7.73-7.58-3.52-6.02-3.74-5.71-4.27-5.23-4.96-4.7-5.39-4-5.92-3.52-6.19-2.83-6.61-1.97-6.83-1.39-6.93-.64-7.1.21-7.26.74-7.1,1.71-6.93,2.29-6.62,2.93-6.51,1.71-2.46,1.07-2.93.32-2.94-.48-3.09-1.07-2.83-1.54-2.13,4.32-4.91,5.71-.8,2.93-.64,2.67-1.23,2.45-1.81,1.71-2.51,1.17-2.77.96-2.14,2.19-5.44,2.03-5.39,1.33-5.71.64-5.71-.15-5.92-.48-5.65-.74-2.83-.96-2.93-1.39-2.93-1.81-2.45-2.45-1.81-2.93-1.39-2.83-.16h-2.77l-1.39-2.19.32-1.23,2.29-1.71,2.19-2.93-1.87-5.71-2.19-9.28-1.49-9.44-.8-9.55-.16-9.55.8-9.6,1.38-9.39,1.34-3.58,2.67-5.39,3.26-5.12,3.84-4.75,4.48-4.21,4.8-3.52,5.39-3.09,5.6-2.29,11.42-3.1,11.57-2.46,11.84-1.76,11.79-1.07,11.89-.11-12.37,1.07Z"/>
  <path class="cls-1" d="m96.27,199.22l-7.41,1.49-6.35,2.02-5.55,2.93-5.39,4-4.8,4.48-4.16,5.12-3.73,5.55-3.1,5.87-2.29,6.19-.43,1.71-2.02,8.8-1.28,8.91v8.85l1.28,8.59,2.02,8.96.59,2.02.59,2.03.8,4.48.16,4.64-.8,4.48-1.33,4.32,2.72,2.77h.48l2.77.11,2.78.96,2.35,1.55,1.97,1.97,1.28,2.67.59,2.78,1.07,4.9.96,7.15.11,7.1-.59,7.25-1.23,6.93-2.02,6.93-2.78,6.67-4.16,6.35-3.1,2.61-3.68,2.14-3.89,1.55-4.32.8-3.52,6.35,1.87,2.72.91,2.94.16,2.83-3.73,6.14-3.1,6.67-2.3,6.77-1.71,6.93-.96,7.15-.11,7.2.48,7.15,1.39,7.09,1.97,6.94,2.61,6.61,3.41,6.35,4,6.03,4.64,5.39,5.28,5.12,5.55,4.48,6.19,3.84,3.36,1.71-26.99-7.73-7.58-3.52-6.02-3.74-5.71-4.27-5.23-4.96-4.7-5.39-4-5.92-3.52-6.19-2.83-6.61-1.97-6.83-1.39-6.93-.64-7.1.21-7.26.74-7.1,1.71-6.93,2.29-6.62,2.93-6.51,1.71-2.46,1.07-2.93.32-2.94-.48-3.09-1.07-2.83-1.54-2.13,4.32-4.91,5.71-.8,2.93-.64,2.67-1.23,2.45-1.81,1.71-2.51,1.17-2.77.96-2.14,2.19-5.44,2.03-5.39,1.33-5.71.64-5.71-.15-5.92-.48-5.65-.74-2.83-.96-2.93-1.39-2.93-1.81-2.45-2.45-1.81-2.93-1.39-2.83-.16h-2.77l-1.39-2.19.32-1.23,2.29-1.71,2.19-2.93-1.87-5.71-2.19-9.28-1.49-9.44-.8-9.55-.16-9.55.8-9.6,1.38-9.39,1.34-3.58,2.67-5.39,3.26-5.12,3.84-4.75,4.48-4.21,4.8-3.52,5.39-3.09,5.6-2.29,11.42-3.1,11.57-2.46,11.84-1.76,11.79-1.07,11.89-.11-12.37,1.07Z"/>
  <path class="cls-3" d="m107.05,317.65l3.14-228.69h3.04l-.8,228.69h-5.38Z"/>
  <path class="cls-1" d="m107.05,317.65l3.14-228.69h3.04l-.8,228.69h-5.38Z"/>
  <path class="cls-3" d="m115.74,88.96h.91l4.96,226.23.91,2.46h-6.77V88.96Z"/>
  <path class="cls-1" d="m115.74,88.96h.91l4.96,226.23.91,2.46h-6.77V88.96Z"/>
  <path class="cls-3" d="m166.68,390.04l-.16.8-.16.59-.59.48-.37.16h-1.07l-.8-.16h-.11l-1.07-.64-1.07-.75-1.12-1.55-.42-1.07-.64-1.44-.48-1.65-.27-1.55-.37-1.71-.42-2.77-.48-3.41-.59-4.91-.64-10.99v-.48l-.32-2.46-.27-2.35-.64-2.24-.48-2.51-.59-2.3-.8-2.19-.91-2.19-.8-1.65-.58-.96-.8-.75-.48-.64-.74-.75-1.23-.64-1.23-.27h-.8l-1.23.11-.58.32-.91.48-.96.75-.8.8h-.11l-1.12.48-.75,1.07-.64,1.39v1.23l.48.91.91.96,1.55.58,1.71-.48,1.07-1.17.16-2.03-.16-1.39-.75-.96.59-.32h.8l1.07.21.48.11,1.23.48.8.8.43.59.74,2.51.48,2.45.64,2.46.27,2.61.37,2.83.27,5.23.16,3.52.64,6.51.11,2.45.64,2.93.64,2.93.75,2.93.9,2.93.8,2.35.48,1.23,1.07,1.49.96,1.28,1.18,1.23,1.44,1.39,1.65.59,1.28.21h1.87l.91-.21.59-.43.48-.48.48-.75.48-.8.27-.75v-.91l.8-.48.59-.64.48-1.86-.59-1.97-1.28-1.07-1.55-.32-1.39.32-.96,1.07-.43,1.65.32,1.76,1.07,1.39.64.43Z"/>
  <path class="cls-1" d="m166.68,390.04l-.16.8-.16.59-.59.48-.37.16h-1.07l-.8-.16h-.11l-1.07-.64-1.07-.75-1.12-1.55-.42-1.07-.64-1.44-.48-1.65-.27-1.55-.37-1.71-.42-2.77-.48-3.41-.59-4.91-.64-10.99v-.48l-.32-2.46-.27-2.35-.64-2.24-.48-2.51-.59-2.3-.8-2.19-.91-2.19-.8-1.65-.58-.96-.8-.75-.48-.64-.74-.75-1.23-.64-1.23-.27h-.8l-1.23.11-.58.32-.91.48-.96.75-.8.8h-.11l-1.12.48-.75,1.07-.64,1.39v1.23l.48.91.91.96,1.55.58,1.71-.48,1.07-1.17.16-2.03-.16-1.39-.75-.96.59-.32h.8l1.07.21.48.11,1.23.48.8.8.43.59.74,2.51.48,2.45.64,2.46.27,2.61.37,2.83.27,5.23.16,3.52.64,6.51.11,2.45.64,2.93.64,2.93.75,2.93.9,2.93.8,2.35.48,1.23,1.07,1.49.96,1.28,1.18,1.23,1.44,1.39,1.65.59,1.28.21h1.87l.91-.21.59-.43.48-.48.48-.75.48-.8.27-.75v-.91l.8-.48.59-.64.48-1.86-.59-1.97-1.28-1.07-1.55-.32-1.39.32-.96,1.07-.43,1.65.32,1.76,1.07,1.39.64.43Z"/>
  <path class="cls-3" d="m145.67,459.23l-2.03.75-1.65.96-1.76,1.07-1.49,1.39-1.55,1.39-1.23,1.55-1.12,1.71-.91,1.81-.75,1.87-.64,2.03-.32,2.03-.27,1.97.11,2.35-.11.48-.64,1.98-.96,2.13-1.07,1.87-1.23,1.86-1.55,1.81-1.55,1.6-1.71,1.33,3.41,1.12,3.41.74,3.52.64,3.57.48,3.52.16h3.41l3.52-.32,3.58-.32,3.57-.64,3.36-.74,3.41-1.12,3.25-1.17,3.2-1.28,3.31-1.65,3.04-1.71,2.93-1.87,2.83-2.19,2.72-2.13,2.67-2.46,1.82-1.87.8-1.07.64-1.23.59-1.39.16-1.44.16-1.39-.16-1.39-.32-1.33-.43-1.44-.8-1.23-.64-.91-3.41-1.39-3.52-1.28-3.52-1.07-3.68-.91-3.73-.75-3.68-.48-3.73-.32h-7.41l-3.68.32-3.42.48-1.87.59Z"/>
  <path class="cls-1" d="m145.67,459.23l-2.03.75-1.65.96-1.76,1.07-1.49,1.39-1.55,1.39-1.23,1.55-1.12,1.71-.91,1.81-.75,1.87-.64,2.03-.32,2.03-.27,1.97.11,2.35-.11.48-.64,1.98-.96,2.13-1.07,1.87-1.23,1.86-1.55,1.81-1.55,1.6-1.71,1.33,3.41,1.12,3.41.74,3.52.64,3.57.48,3.52.16h3.41l3.52-.32,3.58-.32,3.57-.64,3.36-.74,3.41-1.12,3.25-1.17,3.2-1.28,3.31-1.65,3.04-1.71,2.93-1.87,2.83-2.19,2.72-2.13,2.67-2.46,1.82-1.87.8-1.07.64-1.23.59-1.39.16-1.44.16-1.39-.16-1.39-.32-1.33-.43-1.44-.8-1.23-.64-.91-3.41-1.39-3.52-1.28-3.52-1.07-3.68-.91-3.73-.75-3.68-.48-3.73-.32h-7.41l-3.68.32-3.42.48-1.87.59Z"/>
  <path class="cls-3" d="m142.57,364.27l.32.64.16.75v1.55l-.16.74-.32.64h6.03l-2.61-4.48h-3.41v.16Z"/>
  <path class="cls-1" d="m142.57,364.27l.32.64.16.75v1.55l-.16.74-.32.64h6.03l-2.61-4.48h-3.41v.16Z"/>
  <path class="cls-3" d="m134.57,364.11l.11.43.16.8v1.71l-.16.8-.11.75h5.07l-.16-.48-.32-.75v-1.71l.16-.75.32-.8h-5.07Z"/>
  <path class="cls-1" d="m134.57,364.11l.11.43.16.8v1.71l-.16.8-.11.75h5.07l-.16-.48-.32-.75v-1.71l.16-.75.32-.8h-5.07Z"/>
  <path class="cls-3" d="m126.2,364.11l.16.43.32.8v1.71l-.16.8-.32.75h5.12l-.16-.48-.16-.75v-1.71l.16-.75.16-.8h-5.12Z"/>
  <path class="cls-1" d="m126.2,364.11l.16.43.32.8v1.71l-.16.8-.32.75h5.12l-.16-.48-.16-.75v-1.71l.16-.75.16-.8h-5.12Z"/>
  <path class="cls-3" d="m122.52,368.59l-.16-.48-.26-.75v-1.71l.11-.75.32-.8h-7.58l.16.43.27.8v1.71l-.11.8-.32.75h7.58Z"/>
  <path class="cls-1" d="m122.52,368.59l-.16-.48-.26-.75v-1.71l.11-.75.32-.8h-7.58l.16.43.27.8v1.71l-.11.8-.32.75h7.58Z"/>
  <path class="cls-3" d="m112.33,368.11l-.16-.75-.16-.96v-.75l.16-.75.26-.8h-5.65l-.64,1.55,1.81,2.93h4.48l-.11-.48Z"/>
  <path class="cls-1" d="m112.33,368.11l-.16-.75-.16-.96v-.75l.16-.75.26-.8h-5.65l-.64,1.55,1.81,2.93h4.48l-.11-.48Z"/>
  <path class="cls-3" d="m106.3,496.57l-4.48-83.64,8.16-.21-.59,9.92h3.52l1.39-9.92h4.64l-1.55,9.92h3.25l1.87-9.92h3.09l-1.07,9.92h2.45l2.61-9.92h3.42l-.8,9.92h2.93l1.71-9.92,2.77.21-15.89,78.58v7.42h-13.92l-3.52-2.35Z"/>
  <path class="cls-1" d="m106.3,496.57l-4.48-83.64,8.16-.21-.59,9.92h3.52l1.39-9.92h4.64l-1.55,9.92h3.25l1.87-9.92h3.09l-1.07,9.92h2.45l2.61-9.92h3.42l-.8,9.92h2.93l1.71-9.92,2.77.21-15.89,78.58v7.42h-13.92l-3.52-2.35Z"/>
  <path class="cls-3" d="m72,388.06l.32.58.48.64.64.48.59.11.74.16.8-.27h.32l1.55-1.12.91-.9,1.07-1.39.64-1.44.8-1.17.59-1.76.48-1.49.48-1.55.11-.64,1.07-5.39.64-5.28.75-10.78.16-.43.32-2.51.48-2.35.48-2.13.43-2.46.96-2.35.91-2.14,1.12-2.02,1.33-2.19.64-.59.75-.75.96-.8.9-.59,1.07-.48,1.39-.32h2.19l1.07.32,1.12.48,1.07.59.74.8h.16l1.07.27,1.23,1.28.48,1.65-.48,1.86-1.23,1.23-1.71.48-1.65-.48-1.44-1.23-.43-1.86.43-1.65.96-.96-.96-.32h-.91l-1.07.16-.64.16-1.39.64-.74.8-.48.59-1.07,2.45-.8,2.51-.59,2.61-.32,2.45-.32,2.61-.64,5.28-.11,3.36-.59,6.51-.48,2.77-.64,2.93-.91,2.94-.96,2.77-1.07,2.77-1.39,2.46-.32.64-1.23,1.81-.9,1.28-1.55,1.55-1.71,1.39-1.71.75-1.71.48h-2.03l-1.07-.27-1.07-.8-.48-.48-.58-.75-.32-.96-.16-.75-.11-.96-1.44-1.39-.43-1.71.43-1.66,1.44-1.39,1.65-.48,1.71.48,1.23,1.39.48,1.66-.48,1.71-1.23,1.23-.91.48.11.8Z"/>
  <path class="cls-1" d="m72,388.06l.32.58.48.64.64.48.59.11.74.16.8-.27h.32l1.55-1.12.91-.9,1.07-1.39.64-1.44.8-1.17.59-1.76.48-1.49.48-1.55.11-.64,1.07-5.39.64-5.28.75-10.78.16-.43.32-2.51.48-2.35.48-2.13.43-2.46.96-2.35.91-2.14,1.12-2.02,1.33-2.19.64-.59.75-.75.96-.8.9-.59,1.07-.48,1.39-.32h2.19l1.07.32,1.12.48,1.07.59.74.8h.16l1.07.27,1.23,1.28.48,1.65-.48,1.86-1.23,1.23-1.71.48-1.65-.48-1.44-1.23-.43-1.86.43-1.65.96-.96-.96-.32h-.91l-1.07.16-.64.16-1.39.64-.74.8-.48.59-1.07,2.45-.8,2.51-.59,2.61-.32,2.45-.32,2.61-.64,5.28-.11,3.36-.59,6.51-.48,2.77-.64,2.93-.91,2.94-.96,2.77-1.07,2.77-1.39,2.46-.32.64-1.23,1.81-.9,1.28-1.55,1.55-1.71,1.39-1.71.75-1.71.48h-2.03l-1.07-.27-1.07-.8-.48-.48-.58-.75-.32-.96-.16-.75-.11-.96-1.44-1.39-.43-1.71.43-1.66,1.44-1.39,1.65-.48,1.71.48,1.23,1.39.48,1.66-.48,1.71-1.23,1.23-.91.48.11.8Z"/>
  <path class="cls-2" d="m112.43,317.65l.8,46.46"/>
  <path class="cls-2" d="m113.23,368.43l-2.77,44.49"/>
  <path class="cls-2" d="m123.26,317.65l.96,46.46"/>
  <path class="cls-2" d="m124.22,368.43l-4.16,44.49"/>
  <path class="cls-2" d="m131.48,317.65l1.33,46.46"/>
  <path class="cls-2" d="m132.81,368.43l-6.61,44.49"/>
  <path class="cls-2" d="m139.48,317.65l1.23,46.46"/>
  <path class="cls-2" d="m140.71,368.43l-7.1,44.49"/>
  <path class="cls-2" d="m105.98,491.5c-29.36,7.18-55.57-12.57-64.71-40.01-5.42-16.26-3.26-31.78,2.93-47.37,3.23-8.14,10-13.69,3.41-22.4,15.87,1.01,25.06-11.97,29.05-28.17,2.4-9.77,3.22-23.26-.3-32.97-2.7-7.45-10.6-10.58-13.18-16.06-2.9-6.18-2.35-17.14-4.24-24.89-2.97-12.17-3.6-24.86-.24-37.05,6.21-22.56,25.69-39.33,49.61-39.05"/>
  <path class="cls-2" d="m188.29,464.29c14.17-30.48-5.98-53.46-1.39-83.06-29.74-2.4-40.58-79.43-8.37-78.15-4.77-24.45,9.24-47.48-4.08-71.46-7.47-13.43-22.06-26.02-37.9-27.34"/>
  <path class="cls-2" d="m188.77,473.19c10.39-15.5,14.72-34.55,10.78-52.59-3.6-16.48-5.02-29.97-6.77-46.3-18.71,5.43-24.26-22.89-25.02-35.8-.4-6.73,2.05-42.84,15.58-27.53,3.94-8.5.84-27.1,2.03-37.5,1.92-16.74.1-32.65-8.96-47.26-8.73-14.07-23.15-25.72-40.43-25.61"/>
  <path class="cls-2" d="m62.53,490.23s12.6,11.93,47.61,6.07"/>
</svg>